# xmcd CD database file
#
# Track frame offsets:
#	150
#	30539
#	57289
#	83601
#	102429
#	137982
#	150888
#	192484
#	211243
#	239993
#	265610
#
# Disc length: 4268 seconds
#
# Revision: 0
# Processed by: cddbd v1.4PL0 Copyright (c) Steve Scherf et al.
# Submitted via: CDex 1.50
#
DISCID=9310aa0b
DTITLE=Lee Sankey - Tell Me There's A Sun
DYEAR=2003
DGENRE=Blues
TTITLE0=Tell Me There's A Sun
TTITLE1=The Man
TTITLE2=No Man's Land
TTITLE3=Heading Into Town
TTITLE4=He Doesn't Live Like The Others
TTITLE5=Doing What I Should Have Done
TTITLE6=The High Points
TTITLE7=Frank's Brother
TTITLE8=The Unchosen
TTITLE9=Monkey Lips
TTITLE10=Sometimes
EXTD=YEAR: 2003
EXTT0=
EXTT1=
EXTT2=
EXTT3=
EXTT4=
EXTT5=
EXTT6=
EXTT7=
EXTT8=
EXTT9=
EXTT10=
PLAYORDER=
